<svg width="520" height="312" viewBox="0 0 520 312" fill="none" xmlns="http://www.w3.org/2000/svg">
<g clip-path="url(#clip0_280_137)">
<path d="M0 312L520 312L520 0L2.72759e-05 -4.54598e-05L0 312Z" fill="#131B35"/>
<path d="M462.8 312L520 312L520 254.8L462.8 254.8L462.8 312Z" fill="#131B35"/>
<path d="M410.8 312L468 312L468 254.8L410.8 254.8L410.8 312Z" fill="#131B34"/>
<path d="M462.8 260L520 260L520 202.8L462.8 202.8L462.8 260Z" fill="#131B34"/>
<path d="M358.8 312L416 312L416 254.8L358.8 254.8L358.8 312Z" fill="#131A33"/>
<path d="M410.8 260L468 260L468 202.8L410.8 202.8L410.8 260Z" fill="#131A33"/>
<path d="M462.8 208L520 208L520 150.8L462.8 150.8L462.8 208Z" fill="#131A32"/>
<path d="M306.8 312L364 312L364 254.8L306.8 254.8L306.8 312Z" fill="#131A31"/>
<path d="M358.8 260L416 260L416 202.8L358.8 202.8L358.8 260Z" fill="#131931"/>
<path d="M410.8 208L468 208L468 150.8L410.8 150.8L410.8 208Z" fill="#131930"/>
<path d="M462.8 156L520 156L520 98.8L462.8 98.8L462.8 156Z" fill="#131930"/>
<path d="M254.8 312L312 312L312 254.8L254.8 254.8L254.8 312Z" fill="#13192F"/>
<path d="M306.8 260L364 260L364 202.8L306.8 202.8L306.8 260Z" fill="#13182E"/>
<path d="M358.8 208L416 208L416 150.8L358.8 150.8L358.8 208Z" fill="#13182E"/>
<path d="M410.8 156L468 156L468 98.8L410.8 98.8L410.8 156Z" fill="#13182D"/>
<path d="M462.8 104L520 104L520 46.8L462.8 46.8L462.8 104Z" fill="#13182D"/>
<path d="M202.8 312L260 312L260 254.8L202.8 254.8L202.8 312Z" fill="#13172C"/>
<path d="M254.8 260L312 260L312 202.8L254.8 202.8L254.8 260Z" fill="#13172C"/>
<path d="M306.8 208L364 208L364 150.8L306.8 150.8L306.8 208Z" fill="#13172B"/>
<path d="M358.8 156L416 156L416 98.8L358.8 98.8L358.8 156Z" fill="#13172A"/>
<path d="M410.8 104L468 104L468 46.8L410.8 46.8L410.8 104Z" fill="#13172A"/>
<path d="M462.8 52L520 52L520 -5.2L462.8 -5.20001L462.8 52Z" fill="#131629"/>
<path d="M150.8 312L208 312L208 254.8L150.8 254.8L150.8 312Z" fill="#131629"/>
<path d="M202.8 260L260 260L260 202.8L202.8 202.8L202.8 260Z" fill="#131628"/>
<path d="M254.8 208L312 208L312 150.8L254.8 150.8L254.8 208Z" fill="#131628"/>
<path d="M306.8 156L364 156L364 98.8L306.8 98.8L306.8 156Z" fill="#131527"/>
<path d="M358.8 104L416 104L416 46.8L358.8 46.8L358.8 104Z" fill="#131526"/>
<path d="M410.8 52L468 52L468 -5.2L410.8 -5.20001L410.8 52Z" fill="#131526"/>
<path d="M98.8 312L156 312L156 254.8L98.8 254.8L98.8 312Z" fill="#131525"/>
<path d="M150.8 260L208 260L208 202.8L150.8 202.8L150.8 260Z" fill="#131425"/>
<path d="M202.8 208L260 208L260 150.8L202.8 150.8L202.8 208Z" fill="#131424"/>
<path d="M254.8 156L312 156L312 98.8L254.8 98.8L254.8 156Z" fill="#121424"/>
<path d="M306.8 104L364 104L364 46.8L306.8 46.8L306.8 104Z" fill="#121423"/>
<path d="M358.8 52L416 52L416 -5.2L358.8 -5.20001L358.8 52Z" fill="#121323"/>
<path d="M46.8 312L104 312L104 254.8L46.8 254.8L46.8 312Z" fill="#121322"/>
<path d="M98.8 260L156 260L156 202.8L98.8 202.8L98.8 260Z" fill="#121321"/>
<path d="M150.8 208L208 208L208 150.8L150.8 150.8L150.8 208Z" fill="#121221"/>
<path d="M202.8 156L260 156L260 98.8L202.8 98.8L202.8 156Z" fill="#121220"/>
<path d="M254.8 104L312 104L312 46.8L254.8 46.8L254.8 104Z" fill="#121220"/>
<path d="M306.8 52L364 52L364 -5.2L306.8 -5.20001L306.8 52Z" fill="#12121F"/>
<path d="M-5.2 312L52 312L52 254.8L-5.2 254.8L-5.2 312Z" fill="#11111F"/>
<path d="M46.8 260L104 260L104 202.8L46.8 202.8L46.8 260Z" fill="#11111E"/>
<path d="M98.8 208L156 208L156 150.8L98.8 150.8L98.8 208Z" fill="#11111E"/>
<path d="M150.8 156L208 156L208 98.8L150.8 98.8L150.8 156Z" fill="#11111D"/>
<path d="M202.8 104L260 104L260 46.8L202.8 46.8L202.8 104Z" fill="#11101D"/>
<path d="M254.8 52L312 52L312 -5.20004L254.8 -5.20004L254.8 52Z" fill="#11101C"/>
<path d="M-5.2 260L52 260L52 202.8L-5.2 202.8L-5.2 260Z" fill="#10101C"/>
<path d="M46.8 208L104 208L104 150.8L46.8 150.8L46.8 208Z" fill="#100F1B"/>
<path d="M98.8 156L156 156L156 98.8L98.8 98.8L98.8 156Z" fill="#100F1B"/>
<path d="M150.8 104L208 104L208 46.8L150.8 46.8L150.8 104Z" fill="#100F1A"/>
<path d="M202.8 52L260 52L260 -5.20004L202.8 -5.20004L202.8 52Z" fill="#0F0E19"/>
<path d="M-5.2 208L52 208L52 150.8L-5.2 150.8L-5.2 208Z" fill="#0F0E19"/>
<path d="M46.8 156L104 156L104 98.8L46.8 98.8L46.8 156Z" fill="#0F0E18"/>
<path d="M98.8 104L156 104L156 46.8L98.8 46.8L98.8 104Z" fill="#0E0D18"/>
<path d="M150.8 52L208 52L208 -5.20004L150.8 -5.20004L150.8 52Z" fill="#0E0D17"/>
<path d="M-5.2 156L52 156L52 98.8L-5.2 98.8L-5.2 156Z" fill="#0E0D17"/>
<path d="M46.8 104L104 104L104 46.8L46.8 46.8L46.8 104Z" fill="#0D0C16"/>
<path d="M98.8 52L156 52L156 -5.20004L98.8 -5.20004L98.8 52Z" fill="#0D0C16"/>
<path d="M-5.2 104L52 104L52 46.8L-5.2 46.8L-5.2 104Z" fill="#0D0C15"/>
<path d="M46.8 52L104 52L104 -5.20004L46.8 -5.20004L46.8 52Z" fill="#0C0B15"/>
<path d="M-5.2 52L52 52L52 -5.20004L-5.2 -5.20004L-5.2 52Z" fill="#0C0B14"/>
</g>
<defs>
<clipPath id="clip0_280_137">
<rect x="520" y="312" width="520" height="312" rx="30" transform="rotate(-180 520 312)" fill="white"/>
</clipPath>
</defs>
</svg>
